<mxfile host="app.diagrams.net" modified="2024-02-10T20:53:41.118Z" agent="Mozilla/5.0 (Macintosh; Intel Mac OS X 10_15_7) AppleWebKit/537.36 (KHTML, like Gecko) Chrome/121.0.0.0 Safari/537.36" etag="uFhfqpaSAEeDea_rsc5V" version="23.1.2" type="github">
  <diagram name="Page-1" id="dFZVPOjssJK8eaeSMrf8">
    <mxGraphModel dx="792" dy="2168" grid="1" gridSize="10" guides="1" tooltips="1" connect="1" arrows="1" fold="1" page="1" pageScale="1" pageWidth="827" pageHeight="1169" math="0" shadow="0">
      <root>
        <mxCell id="0" />
        <mxCell id="1" parent="0" />
        <mxCell id="gEUqkDLt4xAcNQ1EXw7u-26" value="" style="shape=cube;whiteSpace=wrap;html=1;boundedLbl=1;backgroundOutline=1;darkOpacity=0.05;darkOpacity2=0.1;treeMoving=0;fillColor=#f8cecc;strokeColor=#b85450;" vertex="1" parent="1">
          <mxGeometry x="576.85" y="119" width="171.3" height="90" as="geometry" />
        </mxCell>
        <mxCell id="gEUqkDLt4xAcNQ1EXw7u-1" value="" style="image;sketch=0;aspect=fixed;html=1;points=[];align=center;fontSize=12;image=img/lib/mscae/Person.svg;" vertex="1" parent="1">
          <mxGeometry x="373" y="530" width="81.4" height="110" as="geometry" />
        </mxCell>
        <mxCell id="gEUqkDLt4xAcNQ1EXw7u-2" value="&lt;font style=&quot;font-size: 18px;&quot;&gt;Machine Learning Engineer&lt;/font&gt;" style="text;strokeColor=#6c8ebf;align=center;fillColor=#dae8fc;html=1;verticalAlign=middle;whiteSpace=wrap;rounded=0;noLabel=0;portConstraintRotation=0;snapToPoint=0;fixDash=1;container=0;collapsible=0;backgroundOutline=1;movableLabel=0;autosize=0;fixedWidth=0;treeFolding=0;treeMoving=0;comic=0;dashed=1;shadow=1;glass=0;allowArrows=1;" vertex="1" parent="1">
          <mxGeometry x="263.7" y="650" width="300" height="30" as="geometry" />
        </mxCell>
        <mxCell id="gEUqkDLt4xAcNQ1EXw7u-4" value="" style="endArrow=none;html=1;rounded=0;entryX=0.004;entryY=0.636;entryDx=0;entryDy=0;entryPerimeter=0;flowAnimation=1;" edge="1" parent="1" target="gEUqkDLt4xAcNQ1EXw7u-1">
          <mxGeometry width="50" height="50" relative="1" as="geometry">
            <mxPoint x="170" y="600" as="sourcePoint" />
            <mxPoint x="330" y="550" as="targetPoint" />
          </mxGeometry>
        </mxCell>
        <mxCell id="gEUqkDLt4xAcNQ1EXw7u-6" value="" style="endArrow=none;html=1;rounded=0;exitX=0;exitY=0;exitDx=118.15000000000002;exitDy=120;exitPerimeter=0;flowAnimation=1;fillColor=#b0e3e6;strokeColor=#0e8088;" edge="1" parent="1">
          <mxGeometry width="50" height="50" relative="1" as="geometry">
            <mxPoint x="168.14999999999998" y="220" as="sourcePoint" />
            <mxPoint x="170" y="600" as="targetPoint" />
          </mxGeometry>
        </mxCell>
        <mxCell id="gEUqkDLt4xAcNQ1EXw7u-8" value="&lt;font style=&quot;font-size: 14px;&quot;&gt;Programming Languages&lt;/font&gt;" style="text;strokeColor=none;align=center;fillColor=none;html=1;verticalAlign=middle;whiteSpace=wrap;rounded=0;" vertex="1" parent="1">
          <mxGeometry x="170.64999999999998" y="329" width="190" height="30" as="geometry" />
        </mxCell>
        <mxCell id="gEUqkDLt4xAcNQ1EXw7u-11" value="" style="endArrow=none;html=1;rounded=0;entryX=0.004;entryY=0.636;entryDx=0;entryDy=0;entryPerimeter=0;flowAnimation=1;exitX=0.971;exitY=0.636;exitDx=0;exitDy=0;exitPerimeter=0;" edge="1" parent="1" source="gEUqkDLt4xAcNQ1EXw7u-1">
          <mxGeometry width="50" height="50" relative="1" as="geometry">
            <mxPoint x="460" y="600" as="sourcePoint" />
            <mxPoint x="663" y="600" as="targetPoint" />
          </mxGeometry>
        </mxCell>
        <mxCell id="gEUqkDLt4xAcNQ1EXw7u-12" value="" style="endArrow=none;html=1;rounded=0;flowAnimation=1;fillColor=#f8cecc;strokeColor=#b85450;" edge="1" parent="1" source="gEUqkDLt4xAcNQ1EXw7u-26">
          <mxGeometry width="50" height="50" relative="1" as="geometry">
            <mxPoint x="662.7654000000002" y="221.32000000000016" as="sourcePoint" />
            <mxPoint x="662" y="600" as="targetPoint" />
          </mxGeometry>
        </mxCell>
        <mxCell id="gEUqkDLt4xAcNQ1EXw7u-13" value="&lt;font style=&quot;&quot;&gt;&lt;font style=&quot;font-size: 14px;&quot;&gt;Apache Spark&lt;/font&gt;&lt;br&gt;&lt;/font&gt;" style="text;strokeColor=none;align=center;fillColor=none;html=1;verticalAlign=middle;whiteSpace=wrap;rounded=0;fontStyle=1" vertex="1" parent="1">
          <mxGeometry x="576.8499999999999" y="155" width="190" height="30" as="geometry" />
        </mxCell>
        <mxCell id="gEUqkDLt4xAcNQ1EXw7u-14" value="&lt;font style=&quot;&quot;&gt;&lt;font style=&quot;font-size: 14px;&quot;&gt;Big&lt;br&gt;Data&lt;/font&gt;&lt;br&gt;&lt;/font&gt;" style="text;strokeColor=none;align=center;fillColor=none;html=1;verticalAlign=middle;whiteSpace=wrap;rounded=0;" vertex="1" parent="1">
          <mxGeometry x="565.8499999999999" y="83" width="190" height="30" as="geometry" />
        </mxCell>
        <mxCell id="gEUqkDLt4xAcNQ1EXw7u-16" value="" style="shape=cube;whiteSpace=wrap;html=1;boundedLbl=1;backgroundOutline=1;darkOpacity=0.05;darkOpacity2=0.1;treeMoving=0;fillColor=#dae8fc;strokeColor=#6c8ebf;" vertex="1" parent="1">
          <mxGeometry x="450" y="360" width="171.3" height="90" as="geometry" />
        </mxCell>
        <mxCell id="gEUqkDLt4xAcNQ1EXw7u-18" value="&lt;font style=&quot;font-size: 14px;&quot;&gt;Data Bases&lt;/font&gt;" style="text;strokeColor=none;align=center;fillColor=none;html=1;verticalAlign=middle;whiteSpace=wrap;rounded=0;" vertex="1" parent="1">
          <mxGeometry x="440.65" y="330" width="190" height="30" as="geometry" />
        </mxCell>
        <mxCell id="gEUqkDLt4xAcNQ1EXw7u-19" value="&lt;font style=&quot;&quot;&gt;&lt;font style=&quot;font-size: 14px;&quot;&gt;Azure Database&lt;br&gt;Cosmo DB&lt;/font&gt;&lt;br&gt;&lt;/font&gt;" style="text;strokeColor=none;align=center;fillColor=none;html=1;verticalAlign=middle;whiteSpace=wrap;rounded=0;fontStyle=1" vertex="1" parent="1">
          <mxGeometry x="440.64999999999986" y="400" width="190" height="30" as="geometry" />
        </mxCell>
        <mxCell id="gEUqkDLt4xAcNQ1EXw7u-20" value="" style="endArrow=none;html=1;rounded=0;exitX=0;exitY=0;exitDx=118.15000000000002;exitDy=120;exitPerimeter=0;flowAnimation=1;fillColor=#bac8d3;strokeColor=#23445d;entryX=0.541;entryY=0.108;entryDx=0;entryDy=0;entryPerimeter=0;" edge="1" parent="1">
          <mxGeometry width="50" height="50" relative="1" as="geometry">
            <mxPoint x="170" y="600" as="sourcePoint" />
            <mxPoint x="172.01830000000007" y="989.9599999999996" as="targetPoint" />
          </mxGeometry>
        </mxCell>
        <mxCell id="gEUqkDLt4xAcNQ1EXw7u-22" value="&lt;font style=&quot;font-size: 12px;&quot;&gt;Data Visualization&lt;/font&gt;" style="text;strokeColor=none;align=center;fillColor=none;html=1;verticalAlign=middle;whiteSpace=wrap;rounded=0;" vertex="1" parent="1">
          <mxGeometry x="179.99999999999997" y="840" width="190" height="30" as="geometry" />
        </mxCell>
        <mxCell id="gEUqkDLt4xAcNQ1EXw7u-24" value="" style="shape=cube;whiteSpace=wrap;html=1;boundedLbl=1;backgroundOutline=1;darkOpacity=0.05;darkOpacity2=0.1;treeMoving=0;fillColor=#d5e8d4;strokeColor=#82b366;" vertex="1" parent="1">
          <mxGeometry x="180" y="360" width="171.3" height="90" as="geometry" />
        </mxCell>
        <mxCell id="gEUqkDLt4xAcNQ1EXw7u-25" value="" style="endArrow=none;html=1;rounded=0;flowAnimation=1;fillColor=#d5e8d4;strokeColor=#82b366;exitX=0.498;exitY=0.993;exitDx=0;exitDy=0;exitPerimeter=0;" edge="1" parent="1" source="gEUqkDLt4xAcNQ1EXw7u-24">
          <mxGeometry width="50" height="50" relative="1" as="geometry">
            <mxPoint x="266" y="480" as="sourcePoint" />
            <mxPoint x="265.55" y="598" as="targetPoint" />
          </mxGeometry>
        </mxCell>
        <mxCell id="gEUqkDLt4xAcNQ1EXw7u-9" value="&lt;font style=&quot;&quot;&gt;&lt;font style=&quot;font-size: 14px;&quot;&gt;Python&lt;br&gt;&lt;/font&gt;&lt;span style=&quot;font-size: 18px;&quot;&gt;SQL&lt;/span&gt;&lt;br&gt;&lt;/font&gt;" style="text;strokeColor=none;align=center;fillColor=none;html=1;verticalAlign=middle;whiteSpace=wrap;rounded=0;fontStyle=1" vertex="1" parent="1">
          <mxGeometry x="170.65" y="400" width="190" height="30" as="geometry" />
        </mxCell>
        <mxCell id="gEUqkDLt4xAcNQ1EXw7u-29" value="" style="endArrow=none;html=1;rounded=0;flowAnimation=1;fillColor=#dae8fc;strokeColor=#6c8ebf;exitX=0.498;exitY=0.993;exitDx=0;exitDy=0;exitPerimeter=0;" edge="1" parent="1">
          <mxGeometry width="50" height="50" relative="1" as="geometry">
            <mxPoint x="534.98" y="450" as="sourcePoint" />
            <mxPoint x="535.53" y="599" as="targetPoint" />
          </mxGeometry>
        </mxCell>
        <mxCell id="gEUqkDLt4xAcNQ1EXw7u-30" value="" style="shape=cube;whiteSpace=wrap;html=1;boundedLbl=1;backgroundOutline=1;darkOpacity=0.05;darkOpacity2=0.1;treeMoving=0;fillColor=#ffe6cc;strokeColor=#d79b00;autosize=1;" vertex="1" parent="1">
          <mxGeometry x="180" y="750" width="171.3" height="90" as="geometry" />
        </mxCell>
        <mxCell id="gEUqkDLt4xAcNQ1EXw7u-31" value="" style="endArrow=none;html=1;rounded=0;flowAnimation=1;fillColor=#ffe6cc;strokeColor=#d79b00;exitX=0.498;exitY=0.993;exitDx=0;exitDy=0;exitPerimeter=0;" edge="1" parent="1">
          <mxGeometry width="50" height="50" relative="1" as="geometry">
            <mxPoint x="266.3" y="600" as="sourcePoint" />
            <mxPoint x="266.85" y="749" as="targetPoint" />
          </mxGeometry>
        </mxCell>
        <mxCell id="gEUqkDLt4xAcNQ1EXw7u-23" value="&lt;font style=&quot;&quot;&gt;&lt;font style=&quot;font-size: 12px;&quot;&gt;PowerBI&lt;/font&gt;&lt;br&gt;&lt;/font&gt;" style="text;strokeColor=none;align=center;fillColor=none;html=1;verticalAlign=middle;whiteSpace=wrap;rounded=0;fontStyle=1" vertex="1" parent="1">
          <mxGeometry x="170.64999999999998" y="790" width="190" height="30" as="geometry" />
        </mxCell>
        <mxCell id="gEUqkDLt4xAcNQ1EXw7u-32" value="" style="endArrow=none;html=1;rounded=0;flowAnimation=1;fillColor=#1ba1e2;strokeColor=#006EAF;" edge="1" parent="1">
          <mxGeometry width="50" height="50" relative="1" as="geometry">
            <mxPoint x="412" y="135" as="sourcePoint" />
            <mxPoint x="412" y="526" as="targetPoint" />
          </mxGeometry>
        </mxCell>
        <mxCell id="gEUqkDLt4xAcNQ1EXw7u-35" value="&lt;font style=&quot;&quot;&gt;&lt;span style=&quot;font-size: 14px;&quot;&gt;Cloud&lt;/span&gt;&lt;br&gt;&lt;/font&gt;" style="text;strokeColor=none;align=center;fillColor=none;html=1;verticalAlign=middle;whiteSpace=wrap;rounded=0;" vertex="1" parent="1">
          <mxGeometry x="318.9999999999999" y="20" width="190" height="30" as="geometry" />
        </mxCell>
        <mxCell id="gEUqkDLt4xAcNQ1EXw7u-36" value="" style="html=1;verticalLabelPosition=bottom;align=center;labelBackgroundColor=#ffffff;verticalAlign=top;strokeWidth=2;strokeColor=#0080F0;shadow=0;dashed=0;shape=mxgraph.ios7.icons.cloud;" vertex="1" parent="1">
          <mxGeometry x="338" y="50" width="152" height="87" as="geometry" />
        </mxCell>
        <mxCell id="gEUqkDLt4xAcNQ1EXw7u-34" value="&lt;font style=&quot;&quot;&gt;&lt;font style=&quot;font-size: 12px;&quot;&gt;Azure&lt;/font&gt;&lt;br&gt;&lt;/font&gt;" style="text;strokeColor=none;align=center;fillColor=none;html=1;verticalAlign=middle;whiteSpace=wrap;rounded=0;fontStyle=1" vertex="1" parent="1">
          <mxGeometry x="319" y="89" width="191" height="31" as="geometry" />
        </mxCell>
        <mxCell id="gEUqkDLt4xAcNQ1EXw7u-38" value="" style="shape=cube;whiteSpace=wrap;html=1;boundedLbl=1;backgroundOutline=1;darkOpacity=0.05;darkOpacity2=0.1;treeMoving=0;fillColor=#b0e3e6;strokeColor=#0e8088;" vertex="1" parent="1">
          <mxGeometry x="80" y="120" width="171.3" height="90" as="geometry" />
        </mxCell>
        <mxCell id="gEUqkDLt4xAcNQ1EXw7u-39" value="&lt;font style=&quot;&quot;&gt;&lt;span style=&quot;font-size: 14px;&quot;&gt;Tensorflow &amp;amp;&amp;nbsp;&lt;/span&gt;Keras&lt;br&gt;PyTorch&lt;br&gt;&lt;/font&gt;" style="text;strokeColor=none;align=center;fillColor=none;html=1;verticalAlign=middle;whiteSpace=wrap;rounded=0;fontStyle=1" vertex="1" parent="1">
          <mxGeometry x="73.69999999999993" y="160" width="190" height="30" as="geometry" />
        </mxCell>
        <mxCell id="gEUqkDLt4xAcNQ1EXw7u-40" value="&lt;font style=&quot;&quot;&gt;&lt;span style=&quot;font-size: 14px;&quot;&gt;Frameworks AI&lt;/span&gt;&lt;br&gt;&lt;/font&gt;" style="text;strokeColor=none;align=center;fillColor=none;html=1;verticalAlign=middle;whiteSpace=wrap;rounded=0;" vertex="1" parent="1">
          <mxGeometry x="70.64999999999992" y="89" width="190" height="30" as="geometry" />
        </mxCell>
        <mxCell id="gEUqkDLt4xAcNQ1EXw7u-41" value="" style="shape=cube;whiteSpace=wrap;html=1;boundedLbl=1;backgroundOutline=1;darkOpacity=0.05;darkOpacity2=0.1;treeMoving=0;fillColor=#bac8d3;strokeColor=#23445d;" vertex="1" parent="1">
          <mxGeometry x="83.05" y="990" width="171.3" height="90" as="geometry" />
        </mxCell>
        <mxCell id="gEUqkDLt4xAcNQ1EXw7u-42" value="&lt;font style=&quot;&quot;&gt;&lt;span style=&quot;font-size: 14px;&quot;&gt;Generative&amp;nbsp;&lt;/span&gt;AI&amp;nbsp;&lt;br&gt;&lt;/font&gt;" style="text;strokeColor=none;align=center;fillColor=none;html=1;verticalAlign=middle;whiteSpace=wrap;rounded=0;" vertex="1" parent="1">
          <mxGeometry x="83.04999999999993" y="1080" width="190" height="30" as="geometry" />
        </mxCell>
        <mxCell id="gEUqkDLt4xAcNQ1EXw7u-43" value="&lt;font style=&quot;&quot;&gt;&lt;span style=&quot;font-size: 14px;&quot;&gt;OpenAI&lt;br&gt;&lt;/span&gt;LangChain&lt;br&gt;Azure OpenAI&lt;br&gt;&lt;/font&gt;" style="text;strokeColor=none;align=center;fillColor=none;html=1;verticalAlign=middle;whiteSpace=wrap;rounded=0;fontStyle=1" vertex="1" parent="1">
          <mxGeometry x="79.99999999999993" y="1030" width="190" height="30" as="geometry" />
        </mxCell>
        <mxCell id="gEUqkDLt4xAcNQ1EXw7u-45" value="" style="endArrow=none;html=1;rounded=0;flowAnimation=1;fillColor=#d0cee2;strokeColor=#56517e;exitX=0.498;exitY=0.993;exitDx=0;exitDy=0;exitPerimeter=0;" edge="1" parent="1">
          <mxGeometry width="50" height="50" relative="1" as="geometry">
            <mxPoint x="534.98" y="601" as="sourcePoint" />
            <mxPoint x="535.53" y="750" as="targetPoint" />
          </mxGeometry>
        </mxCell>
        <mxCell id="gEUqkDLt4xAcNQ1EXw7u-46" value="" style="shape=cube;whiteSpace=wrap;html=1;boundedLbl=1;backgroundOutline=1;darkOpacity=0.05;darkOpacity2=0.1;treeMoving=0;fillColor=#d0cee2;strokeColor=#56517e;" vertex="1" parent="1">
          <mxGeometry x="450" y="750" width="171.3" height="90" as="geometry" />
        </mxCell>
        <mxCell id="gEUqkDLt4xAcNQ1EXw7u-44" value="&lt;font style=&quot;&quot;&gt;&lt;span style=&quot;font-size: 14px;&quot;&gt;Docker&lt;br&gt;&lt;/span&gt;Kubernetes&lt;br&gt;MlFlow&lt;br&gt;&lt;/font&gt;" style="text;strokeColor=none;align=center;fillColor=none;html=1;verticalAlign=middle;whiteSpace=wrap;rounded=0;fontStyle=1" vertex="1" parent="1">
          <mxGeometry x="440.6499999999999" y="790" width="190" height="30" as="geometry" />
        </mxCell>
        <mxCell id="gEUqkDLt4xAcNQ1EXw7u-47" value="" style="endArrow=none;html=1;rounded=0;exitX=0;exitY=0;exitDx=118.15000000000002;exitDy=120;exitPerimeter=0;flowAnimation=1;entryX=0.541;entryY=0.108;entryDx=0;entryDy=0;entryPerimeter=0;" edge="1" parent="1">
          <mxGeometry width="50" height="50" relative="1" as="geometry">
            <mxPoint x="661.49" y="600.02" as="sourcePoint" />
            <mxPoint x="663.5083000000001" y="989.9799999999996" as="targetPoint" />
          </mxGeometry>
        </mxCell>
        <mxCell id="gEUqkDLt4xAcNQ1EXw7u-48" value="" style="shape=cube;whiteSpace=wrap;html=1;boundedLbl=1;backgroundOutline=1;darkOpacity=0.05;darkOpacity2=0.1;treeMoving=0;" vertex="1" parent="1">
          <mxGeometry x="575.1999999999999" y="990" width="171.3" height="90" as="geometry" />
        </mxCell>
        <mxCell id="gEUqkDLt4xAcNQ1EXw7u-49" value="&lt;font style=&quot;&quot;&gt;&lt;span style=&quot;font-size: 14px;&quot;&gt;Git&lt;br&gt;&lt;/span&gt;Azure Repositories&lt;br&gt;&lt;/font&gt;" style="text;strokeColor=none;align=center;fillColor=none;html=1;verticalAlign=middle;whiteSpace=wrap;rounded=0;fontStyle=1" vertex="1" parent="1">
          <mxGeometry x="567.4999999999999" y="1030" width="190" height="30" as="geometry" />
        </mxCell>
      </root>
    </mxGraphModel>
  </diagram>
</mxfile>
